Coordinates
version=1
nRows=19
nColumns=24
inDegrees=yes

Units are S.I. units (second, meters, Newtons, ...)
Angles are in degrees.

endheader
time	pelvis_tilt	pelvis_list	pelvis_rotation	pelvis_tx	pelvis_ty	pelvis_tz	hip_flexion_r	hip_adduction_r	hip_rotation_r	knee_angle_r	ankle_angle_r	subtalar_angle_r	mtp_angle_r	hip_flexion_l	hip_adduction_l	hip_rotation_l	knee_angle_l	ankle_angle_l	subtalar_angle_l	mtp_angle_l	lumbar_extension	lumbar_bending	lumbar_rotation
      3.29500000	    -11.69945016	      4.20774913	     -1.05129994	     -2.00588685	     -0.01200244	     -0.70693276	     22.73771105	     -6.10730240	     -3.10118110	    -66.07003783	    -18.30207245	    -18.91432592	      0.72278454	     24.68689765	      5.89117887	    -10.98677812	    -19.81308711	      2.26307224	     -8.21504643	      3.59422677	      7.57577260	     -4.71491157	     -1.79823546
      3.30000000	    -11.73324715	      4.08202388	     -0.93766846	     -2.00015334	     -0.01110490	     -0.70760252	     23.63289577	     -5.98423813	     -3.21108802	    -66.66349438	    -17.50984485	    -18.84492430	      0.77250010	     24.11697778	      5.90195347	    -10.80575163	    -19.40543989	      2.39104572	     -8.16326756	      3.83315619	      7.58676831	     -4.56641102	     -2.06743404
      3.30500000	    -11.75777703	      3.98853005	     -0.87710358	     -1.99440176	     -0.01021919	     -0.70823523	     24.52053484	     -5.87914706	     -3.25757386	    -67.17902167	    -16.74402405	    -18.69828193	      0.97125110	     23.51574761	      5.92962478	    -10.66401350	    -18.96068870	      2.53552724	     -8.13121229	      3.96227569	      7.59737768	     -4.43430687	     -2.24440072
      3.31000000	    -11.77476835	      3.89988640	     -0.81318000	     -1.98864590	     -0.00934197	     -0.70884457	     25.37745903	     -5.77714022	     -3.30250591	    -67.60146907	    -15.98609862	    -18.50976625	      1.27627461	     22.90180998	      5.96052633	    -10.52926546	    -18.50738385	      2.67031288	     -8.08736946	      4.02801639	      7.60462922	     -4.30935270	     -2.43504782
      3.31500000	    -11.77910445	      3.82281181	     -0.75137770	     -1.98286000	     -0.00847682	     -0.70946228	     26.19925603	     -5.69063516	     -3.34004613	    -67.93406395	    -15.24716616	    -18.27311482	      1.69346367	     22.26267437	      6.00392676	    -10.40326225	    -18.03452690	      2.80333814	     -8.04824626	      4.04681137	      7.60585407	     -4.19230190	     -2.62071185
      3.32000000	    -11.75119510	      3.77988171	     -0.72125281	     -1.97707265	     -0.00761128	     -0.71007296	     26.97278554	     -5.63450582	     -3.33711636	    -68.16097841	    -14.63441693	    -18.11415249	      2.68055196	     21.56967273	      6.08530407	    -10.24902872	    -17.52594863	      2.90041742	     -8.11063808	      3.92720704	      7.57525719	     -4.09895644	     -2.74346145
      3.32500000	    -11.72249393	      3.68737714	     -0.62069887	     -1.97122136	     -0.00675536	     -0.71068597	     27.69481197	     -5.55039187	     -3.43521371	    -68.30585982	    -13.93844577	    -17.88860103	      3.01786300	     20.88454666	      6.11197555	    -10.14713163	    -17.04538636	      3.09151701	     -7.93372605	      3.93694319	      7.55039084	     -3.97505430	     -2.97860242
      3.33000000	    -11.66533000	      3.63196340	     -0.55626515	     -1.96535706	     -0.00593710	     -0.71127470	     28.38126992	     -5.49672876	     -3.49301962	    -68.38550653	    -13.25301805	    -17.64907504	      3.39075020	     20.15014129	      6.17204499	    -10.04338502	    -16.53009377	      3.26864498	     -7.82154920	      3.92804251	      7.49987776	     -3.87952480	     -3.13197918
      3.33500000	    -11.53788450	      3.57980684	     -0.53467653	     -1.95941389	     -0.00500548	     -0.71183196	     28.95015890	     -5.42787462	     -3.50398685	    -68.33072913	    -12.64150826	    -17.43482376	      4.10557542	     19.30808887	      6.22877064	     -9.96617000	    -15.95993463	      3.35906297	     -7.78267844	      3.81309986	      7.39465337	     -3.77281729	     -3.27481832
      3.34000000	    -11.47461022	      3.52432033	     -0.43601914	     -1.95353621	     -0.00426921	     -0.71240430	     29.56762684	     -5.39040734	     -3.60521104	    -68.23576722	    -11.95697816	    -17.27190442	      4.47725502	     18.57585397	      6.28445518	     -9.88913184	    -15.46089187	      3.52337537	     -7.61241142	      3.81170274	      7.33834088	     -3.68753829	     -3.49510267
      3.34500000	    -11.39144251	      3.48395849	     -0.36369032	     -1.94762115	     -0.00356131	     -0.71296767	     30.14921368	     -5.36327837	     -3.68849817	    -68.06699195	    -11.33204954	    -17.14823307	      4.77127402	     17.79803817	      6.35215745	     -9.78603714	    -14.92311469	      3.69938186	     -7.45306508	      3.82669335	      7.27105478	     -3.60650788	     -3.63732467
      3.35000000	    -11.26746898	      3.42942600	     -0.29169457	     -1.94166719	     -0.00281931	     -0.71352143	     30.63978710	     -5.32149274	     -3.77134248	    -67.78873511	    -10.69047927	    -16.99965150	      5.09699718	     16.97120938	      6.39971797	     -9.72211279	    -14.37710872	      3.84120786	     -7.28692963	      3.83510738	      7.16649238	     -3.51142571	     -3.81924834
      3.35500000	    -11.10235368	      3.35828908	     -0.21821398	     -1.93571260	     -0.00204662	     -0.71407064	     31.04343194	     -5.26244734	     -3.86258644	    -67.39998416	    -10.09419404	    -16.91815687	      5.47769198	     16.10221237	      6.42518424	     -9.69261309	    -13.83164613	      3.95606336	     -7.11347480	      3.84111428	      7.01438280	     -3.39535595	     -4.02505033
      3.36000000	    -10.96197851	      3.28620889	     -0.13423876	     -1.92976176	     -0.00138221	     -0.71462955	     31.45477902	     -5.21652929	     -3.97996832	    -66.94298879	     -9.55717778	    -16.91248713	      5.82104316	     15.26296960	      6.44793657	     -9.62149241	    -13.29700454	      4.10969626	     -6.90877764	      3.87475097	      6.89060653	     -3.27952416	     -4.21397288
      3.36500000	    -10.83246798	      3.20692863	     -0.04455556	     -1.92382780	     -0.00078794	     -0.71517142	     31.85185876	     -5.16763441	     -4.10984788	    -66.40820588	     -9.05064044	    -16.94717487	      6.11335687	     14.44442042	      6.45742129	     -9.54955795	    -12.77678025	      4.26957545	     -6.69137066	      3.91866473	      6.77588688	     -3.15728921	     -4.40619478
      3.37000000	    -10.73116215	      3.13281612	      0.04729147	     -1.91792434	     -0.00030679	     -0.71571095	     32.26351646	     -5.13037956	     -4.24506554	    -65.81090114	     -8.57895661	    -17.01870470	      6.32647353	     13.66331425	      6.46906335	     -9.44204178	    -12.26834687	      4.45390859	     -6.46680584	      3.97169316	      6.68917800	     -3.04225918	     -4.57408588
      3.37500000	    -10.56019895	      3.03736349	      0.12576261	     -1.91200507	      0.00025716	     -0.71622571	     32.55023317	     -5.06259549	     -4.37599554	    -65.08973077	     -8.18119880	    -17.16916845	      6.63552437	     12.80885434	      6.44702654	     -9.42928294	    -11.75709362	      4.59405707	     -6.21378444	      4.03389352	      6.52742796	     -2.89583937	     -4.77877146
      3.38000000	    -10.48804143	      2.94367415	      0.25328632	     -1.90615035	      0.00059031	     -0.71678391	     32.92785957	     -5.03161954	     -4.54789288	    -64.33102128	     -7.71741647	    -17.24629056	      6.79258769	     12.09539382	      6.43286858	     -9.33694994	    -11.30533817	      4.77274854	     -5.98276755	      4.09248542	      6.46215524	     -2.76184424	     -5.01045531
      3.38500000	    -10.39936451	      2.86317003	      0.35853389	     -1.90030369	      0.00086760	     -0.71730436	     33.27163836	     -5.00621338	     -4.70293836	    -63.50554048	     -7.32005192	    -17.38150826	      6.89173557	     11.35932223	      6.42475243	     -9.23860337	    -10.84630036	      4.96852373	     -5.74746238	      4.14875254	      6.37961719	     -2.63622792	     -5.19962937
